<?xml version="1.0" encoding="UTF-8"?>
<svg width="87.771mm" height="43.503mm" version="1.1" viewBox="0 0 87.771 43.503"
    xmlns="http://www.w3.org/2000/svg" >
    <defs>
        <clipPath id="clipPath44">
            <path d="m0 0h4724v2362h-4724z" clip-rule="evenodd"/>
        </clipPath>
    </defs>
    <g transform="translate(-81.603 -139.27)">
        <g transform="matrix(.021167 0 0 .021167 78.464 135.26)">
            <g clip-path="url(#clipPath44)">
                <path d="m2033.9 245.34-3.68 4.185-1.84 2.092-1.84 2.093-1.84 2.092-1.84 2.093h-1.84l-1.84 2.092-1.84 2.093-1.84 2.092-1.84 2.093h-1.84l-1.84 2.092-1.84 2.093-1.84 2.092-1.84 2.093h-1.84l-1.84 2.092h-1.84l-1.84 2.093h-1.84l-1.84 2.092-1.84 2.093h-1.84l-1.84 2.092-1.84 2.093h-1.84l-1.84 2.092-1.84 2.093-1.84 2.092h-1.84l-1.85 2.093h-1.84l-1.84 2.092-1.84 2.093h-1.84l-1.84 2.092h-1.84l-1.84 2.093h-1.84l-1.84 2.092h-1.84l-1.84 2.093-1.84 2.092h-1.84l-1.84 2.093-1.84 2.092h-1.84l-1.84 2.093h-1.84l-1.84 2.092h-1.84l-1.84 2.093h-1.84l-1.84 2.092h-1.84l-1.84 2.093-1.84 2.092h-1.84l-1.84 2.093-1.84 2.092h-1.84l-1.84 2.093-1.84 2.092h-1.84l-1.84 2.093h-3.68l-1.84 2.092h-1.84l-1.84 2.093h-3.68l-1.84 2.092h-1.84l-1.84 2.093h-3.68l-1.84 2.092h-3.68l-1.84 2.093h-1.84l-1.84 2.092-3.68 2.093h-1.84l-1.84 2.092h-1.84l-1.84 2.093-1.84 2.092h-1.84l-1.84 2.093-1.84 2.092h-1.84l-1.84 2.093-1.84 2.092h-1.84l-1.84 2.093-3.68 2.092-1.85 2.093h-1.84l-1.84 2.092-1.84 2.093-1.84 2.092h-1.84l-1.84 4.185h-1.84l-1.84 2.093-3.68 2.092-3.68 2.093-1.84 2.092-1.84 2.093-3.68 2.092-1.84 2.093h-1.84l-3.68 4.185-3.68 2.092-1.84 2.093-1.84 2.092-1.84 2.093-3.68 2.092-1.84 2.093h-1.84l-1.84 2.092-1.84 2.093-1.84 2.092-1.84 2.093-3.68 2.092-1.84 2.093-1.84 2.092-1.84 2.093h-1.84l-1.84 2.092-3.68 4.185-1.84 2.093-1.84 2.092-7.36 8.37-5.52 4.185-3.68 4.185-1.84 2.093-3.68 4.185-1.84 2.092-1.84 2.093-5.52 6.277-5.52 6.278-3.68 4.185-1.84 2.092-3.68 4.185-1.85 2.093-3.68 4.185-1.84 2.092-3.68 4.185-1.84 2.093-1.84 4.185-3.68 4.185-1.84 2.092-1.84 2.093-1.84 4.185-1.84 2.092-1.84 2.093-1.84 4.185-1.84 2.093-1.84 4.185-1.84 2.092-1.84 2.093-1.84 4.185-1.84 2.092-1.84 2.093-1.84 2.092-1.84 2.093v2.092h1.84l1.84-2.092 1.84-2.093h1.84l1.84-2.092h3.68l5.52-4.185 3.68-2.093 3.68-2.092h3.68l1.84-2.093h1.84l3.68-2.092h1.84l3.68-2.093 3.69-2.092h1.84l1.84-2.093h1.84l3.68-2.093 7.36-2.092 3.68-2.093 5.52-2.092 7.36-2.093h1.84l3.68-2.092h3.68l3.68-4.185h5.52l3.68-4.185 3.68-2.093h3.68l3.68-2.092 3.68-2.093 7.36-4.185 3.68-2.092 5.52-2.093 5.52-2.092 1.84-2.093h5.52l1.84-2.092h1.84l1.84-2.093 3.68-2.092h3.68l1.84-2.093h1.84l1.84-2.092h-1.84l-11.04 4.185-18.4 12.555-20.24 10.462-16.56 10.463-5.52 2.092-7.36 2.093-5.52 4.185-3.68 2.092-5.52 2.093-3.68 2.093-3.68 2.092-3.68 4.185-1.84 2.093-3.68 2.092-5.52 4.185-3.69 2.093-3.68 2.092-3.68 4.185-1.84 2.093h-1.84l-1.84 2.092-1.84 2.093-1.84 2.092v2.093l-1.84 4.185 1.84 2.092 22.09-2.092 16.56-4.185 14.72-6.278 12.88-6.277 9.2-6.278 18.4-8.37 7.36-4.185 5.52-2.092 12.88-6.278 9.2-4.185 7.36-4.185 9.2-4.185 9.21-4.185 12.88-8.37 11.04-6.278 29.44-16.74 12.88-8.37 9.2-6.277 11.04-8.37 7.36-8.37 9.2-8.37 3.68-6.278 3.68-4.185 5.52-6.277 3.68-2.093 11.05-12.555 7.36-6.277 14.72-16.74 5.52-8.37 3.68-6.278 5.52-6.277 3.68-6.278 1.84-2.092 1.84-2.093 1.84-2.092h-1.84l-7.36 2.092-9.2 8.37-14.72 14.648-12.88 10.462-7.36 4.185-11.05 6.278-16.56 12.555-12.88 10.462-12.88 8.37-18.4 12.555-11.04 6.278-9.2 8.37-14.72 12.555-12.88 8.37-9.2 6.277-5.53 4.185h-3.68l-7.36 4.185-5.52 2.093-1.84 2.092h-1.84l-5.52 4.185-7.36 4.185-9.2 8.37-3.68 4.185-7.36 6.278-3.68 4.185-3.68 2.092-1.84 2.093-3.68 2.093-1.84 2.092-1.84 2.093-1.84 2.092" fill="none" stroke="#008000" stroke-linecap="round" stroke-linejoin="round" stroke-miterlimit="10" stroke-width="33.6"/>
                <path d="m1997.1 487.03h-7.36l-1.84 2.092-7.36 4.185-1.84 2.093-5.53 4.185-3.68 2.092-3.68 2.093-3.68 4.185-1.84 2.092-3.68 2.093h-1.84l-3.68 4.185-3.68 2.092-3.68 2.093-1.84 2.092-3.68 2.093-3.68 2.092-1.84 2.093-5.52 4.185-1.84 2.092-3.68 2.093-3.68 2.092-1.84 2.093-3.68 2.092-1.84 2.093h-1.84l-1.84 2.092-1.84 2.093-3.68 2.092-1.84 2.093h-1.84l-1.84 2.092-1.84 2.093-1.84 2.092-1.84 2.093-1.84 2.092-1.84 2.093h-1.84l-1.84 2.092-1.84 2.093-1.84 2.092-1.84 2.093h-1.84l-1.84 2.092-1.84 2.093h-1.84l-1.84 2.092-1.84 2.093-1.84 2.092h-1.84l-1.84 2.093-3.68 4.185-1.84 2.092-1.84 2.093-3.68 2.092-3.69 2.093-1.84 2.092-5.52 4.185-3.68 4.185h-1.84l-1.84 2.093h-1.84l-3.68 4.185h-1.84l-1.84 2.092h-1.84l-3.68 2.093-1.84 2.092-3.68 2.093h-3.68l-1.84 2.092-1.84 2.093-5.52 2.092-5.52 4.185-1.84 2.093-5.52 2.092h-1.84l-3.68 2.093-3.68 4.185h-1.84l-5.52 2.092-3.68 2.093-1.84 2.092-3.68 2.093h-1.84l-3.68 2.092-5.52 2.093h-1.84l-3.68 2.092-1.84 2.093h-1.84l-7.36 4.185-3.68 2.092-5.52 4.185h-1.84l-1.84 2.093h-1.85l-1.84 2.092-1.84 2.093h-1.84l-1.84 2.092-1.84 2.093h-1.84l-1.84 2.093-1.84 2.092-5.52 4.185-1.84 2.093-1.84 2.092h-1.84l-5.52 6.278h-1.84l-3.68 4.185-3.68 2.092-1.84 2.093-1.84 2.092h-1.84l-1.84 2.093-1.84 2.092-1.84 2.093-1.84 2.092-1.84 2.093-1.84 2.092-1.84 2.093v2.092l-1.84 2.093-1.84 2.092v2.093l-1.84 2.092-1.84 2.093h3.68l3.68-2.093h14.72l9.2-2.092h5.52l9.2-2.093h3.68l9.2-4.185 12.89-6.277 7.36-2.093 7.36-4.185 9.2-4.185 18.4-10.462 12.88-4.185 14.72-6.278 9.2-2.092h7.36l5.52-2.093 11.04-6.278 9.2-6.277 7.36-4.185 9.21-6.278 7.36-6.277 5.52-4.185 9.2-6.278 7.36-6.277 7.36-8.37 9.2-6.278 7.36-8.37 3.68-2.092 9.2-8.37 5.52-8.37 3.68-4.185 5.52-4.185 7.36-6.278 7.36-8.37 3.68-2.092 3.68-2.093 1.84-2.092 3.68-2.093h1.84l3.68-2.092 3.68-2.093 3.68-2.092 3.69-2.093h1.84l1.84-2.092 3.68-2.093h5.52l3.68-2.092h1.84l1.84-2.093h1.84v2.093l-5.52 10.462-9.2 10.463-14.73 10.462-18.4 14.648-18.4 16.74-11.04 8.37-12.88 12.555-14.72 12.555-7.36 6.277-14.72 8.37-9.2 8.37-18.41 12.556-12.88 10.462-9.2 6.278-9.2 4.185-11.04 6.277-9.2 4.185-7.36 2.093-7.36 4.185-11.04 4.185-9.2 4.185-16.56 10.462-12.88 8.37-12.89 6.278-3.68 2.092-5.52 2.093-5.52 6.277-3.68 2.093-1.84 2.092-5.52 6.278-3.68 4.185-5.52 6.277-3.68 4.185-1.84 4.185-3.68 6.278-1.84 6.277v4.185l-1.84 4.185h16.56l14.72-2.092 12.88-2.093 14.73-2.092 9.2-2.093 16.56-4.185 14.72-8.37 16.56-10.462 20.24-12.555 14.72-6.278 16.56-8.37 22.09-14.647 16.56-8.37 12.88-8.37 7.36-4.185 7.36-6.278 9.2-8.37 3.68-4.185 5.52-6.277 7.36-8.37 3.68-2.093 5.52-4.185 3.68-4.185 1.84-4.185 3.68-4.185 3.68-8.37 1.84-2.093 1.84-4.185 3.68-4.185v-2.092l1.84-2.093 5.52-4.185v-2.092 2.092l-9.2 14.648-11.04 16.74-9.2 16.74-7.36 14.648-3.68 6.277-3.68 4.185-3.68 6.278-9.2 10.462-1.84 2.093-3.68 4.185h1.84l5.52-2.093 5.52-2.092h3.68l1.84-2.093h11.04l5.52-2.092h1.84l1.84-2.093-1.84 2.093-12.88 8.37-22.08 12.555-20.24 10.462-22.08 8.37-9.2 4.185-11.05 2.093-12.88 6.277-7.36 2.093-5.52 4.185-9.2 6.277-7.36 6.278-7.36 6.277-11.04 8.37-3.68 4.185-1.84 2.093-3.68 4.185-1.84 4.185-3.68 6.277-1.84 6.278-3.68 8.37-5.52 10.462-3.68 8.37-5.52 8.37-1.84 4.185-3.68 4.185-3.68 2.093-5.52 6.277-3.68 6.278-7.36 8.37-9.21 10.462-5.52 4.185-7.36 6.278-3.68 2.092-5.52 6.278-11.04 8.37-18.4 16.74-7.36 6.277-9.2 8.37-11.04 10.463-9.2 8.37-5.52 4.181-7.36 6.28-7.36 8.37-5.52 4.19-5.52 6.27-5.53 4.19-3.68 4.18-5.52 6.28-5.52 4.19-5.52 2.09-5.52 4.18-3.68 2.1-5.52 4.18-3.68 4.19-3.68 2.09-1.84 2.09h-3.68l-1.84 2.09-1.84 2.1h-1.84l1.84-2.1 12.88-16.74 12.88-14.64 25.76-25.11 11.05-10.47 16.56-14.643 20.24-16.741 25.76-29.295 9.2-8.37 14.72-14.647 11.04-12.555 11.04-10.463 23.93-20.925 18.4-18.832 9.2-8.37 3.68-6.278-1.84-2.092-44.17 16.74-27.6 18.832-23.92 16.74-22.08 14.648-18.4 8.37-14.72 8.37-12.88 6.277-9.21 8.37-12.88 10.463-12.88 8.37-9.2 6.277-5.52 6.278-3.68 2.092-1.84 2.093 1.84-2.093 11.04-8.37 23.92-18.832 27.61-20.925 20.24-14.648 22.08-18.832 14.72-10.463 16.56-16.74 7.36-6.277 11.04-12.555 5.52-6.278 1.84-2.092 7.36-6.278 9.21-6.277 3.68-4.185 5.52-2.093 1.84-2.092v4.185l-1.84 6.277" fill="none" stroke="#008000" stroke-linecap="round" stroke-linejoin="round" stroke-miterlimit="10" stroke-width="33.6"/>
                <path d="m1999 819.73-3.68 2.092-1.84 2.093-1.84 2.092-7.36 8.37-1.84 2.093-5.52 4.185-1.85 2.092-5.52 6.278-7.36 6.277-5.52 4.185-3.68 2.093-3.68 2.092-1.84 2.093-3.68 2.092-1.84 2.093-3.68 4.185h-1.84l-1.84 2.092h-1.84l-1.84 2.093-1.84 2.092-1.84 2.093h-1.84l-1.84 2.092-1.84 2.093-3.68 2.092-1.84 2.093-1.84 2.092-1.84 2.093-1.84 2.092-1.84 2.093-3.68 2.092-1.84 2.093-1.84 2.092-3.68 2.093-3.68 4.185-5.52 6.277h-1.84l-5.52 4.185-3.68 4.185-3.68 2.093-7.36 8.37-1.84 2.092-5.52 2.093-3.68 2.092-1.84 2.093-5.52 4.185-3.69 2.092-5.52 4.185-1.84 2.093-3.68 2.092-5.52 4.185-3.68 2.093-3.68 2.092-5.52 2.093-5.52 2.092-3.68 4.185-9.2 4.185-1.84 2.093-5.52 4.185-3.68 4.185-5.52 2.093-5.52 4.185-1.84 2.092-5.52 4.181-3.68 4.19-5.52 4.18-1.84 2.1-3.68 2.09-1.84 2.09-3.68 2.09-3.68 4.19h-1.84l-3.68 2.09-1.84 2.09h-1.84l-3.68 2.1-1.84 2.09h-1.84l-1.84 2.09h-1.84l-1.84 2.09-1.84 2.1-1.85 2.09h-1.84l-3.68 4.18-1.84 2.1-5.52 6.27-1.84 2.1-3.68 4.18-3.68 2.09-1.84 2.1-3.68 4.18-3.68 4.19-5.52 4.18-1.84 2.09-5.52 4.19-3.68 4.18-3.68 2.1-5.52 6.27-1.84 2.1-1.84 2.09h-1.84l-1.84 2.09h-1.84l-1.84 2.09h-1.84l-1.84 2.1h-1.84l-3.68 4.18h-1.84l-1.84 2.09-1.84 2.1h-1.84l-3.68 4.18h-1.84l-1.84 2.09-1.84 2.1-1.84 2.09h-1.84l-3.68 4.18-3.68 2.1h-1.84l-1.84 2.09h-1.84l-1.84 2.09-3.68 2.09h-5.52l-5.52 2.1h-3.69l-3.68 2.09h-5.52l-5.52 2.09h-12.88l-1.84 2.09h-5.52l-3.68 2.1h-3.68l-1.84 2.09h-1.84l-1.84 2.09h-1.84l-1.84 2.09v-2.09l1.84-6.28 11.04-10.46 9.2-8.37 12.88-8.37 7.36-2.09 3.68-2.09 9.21-6.28 7.36-2.09 5.52-4.19 9.2-4.18 5.52-4.19h3.68l3.68-2.09 5.52-4.19 5.52-4.18 3.68-4.19 3.68-2.09 3.68-4.18h1.84l3.68-2.1 11.04-6.27 7.36-4.19 5.52-4.18 5.52-2.1 9.2-2.09 5.52-4.18 9.2-2.1 7.36-2.09h3.68l5.53-2.09 3.68-2.09 3.68-2.1 7.36-2.09 7.36-4.18 7.36-2.1 11.04-6.27 12.88-6.28 16.56-8.37 11.04-6.28 16.56-8.368 7.36-6.278 11.04-6.278 5.52-2.092 11.05-8.37 5.52-4.185 9.2-8.37 7.36-6.278 5.52-6.277 1.84-2.093 5.52-4.185 3.68-4.185 7.36-6.277 3.68-4.185 9.2-6.278 3.68-2.092 3.68-4.185 3.68-2.093 3.68-4.185 3.68-2.092 7.36-8.37 5.52-6.278 3.68-6.277 5.52-6.278 1.84-4.185 1.84-2.092 3.68-4.185 5.52-6.278 7.36-8.37 5.53-6.277 3.68-4.185 5.52-4.185 1.84-2.093 1.84-2.092-1.84 2.092-7.36 4.185-14.73 8.37-11.04 6.278-9.2 4.185-16.56 10.462-16.56 8.37-12.88 8.37-18.4 8.37-16.56 12.555-27.61 23.018-20.24 25.11-20.24 20.925-16.56 20.925-14.72 14.646-12.88 10.46-9.2 6.28-9.2 10.46-16.56 12.56-12.89 10.46-20.24 16.74-5.52 4.19-5.52 6.27-5.52 10.47-7.36 10.46-5.52 12.55-5.52 8.37-12.88 18.84-9.2 10.46-14.72 16.74-5.52 4.18-5.52 4.19-5.52 4.18-3.68 4.19-5.52 6.28-3.69 4.18-3.68 4.19-3.68 4.18-1.84 4.19-1.84 2.09v2.09h1.84l27.61-12.55 22.08-10.47 11.04-6.27 7.36-2.1 14.72-4.18 5.52-2.09v2.09l-7.36 10.46-5.52 6.28-22.08 20.92-7.36 6.28-18.4 16.74-11.04 10.46-11.05 8.37-5.52 6.28-3.68 4.19-7.36 6.27-5.52 8.37-7.36 12.56-5.52 8.37-5.52 6.28-1.84 4.18-3.68 4.19-3.68 4.18h-1.84l-1.84 2.09-3.68 4.19h1.84l14.72-4.19 22.08-6.27 29.45-14.65 16.56-14.65 11.04-10.46 5.52-6.28 9.2-10.46 14.72-16.74 7.36-6.28 9.2-8.37 12.88-10.46 11.04-8.37 7.36-4.19 7.36-4.18 9.2-6.28 11.05-8.37 11.04-10.46 14.72-8.37 11.04-8.37 7.36-4.19 12.88-6.27 12.88-8.37 14.72-8.37 12.88-8.37 14.72-8.37 12.89-8.37 12.88-8.37 16.56-10.47 16.56-8.37 9.2-6.27 9.2-4.19 5.52-4.18 16.56-12.56 9.2-6.28 11.04-8.37 7.36-6.27 11.05-10.47 5.52-6.27 1.84-4.19 3.68-4.18 1.84-2.1 1.84-2.09v-2.09l1.84-2.09 5.52-4.19 1.84-2.091 1.84-2.092v-4.185l-11.04 2.092-12.88 6.276-11.05 6.28-5.52 2.09-18.4 12.56-12.88 10.46-12.88 12.55-16.56 16.74-22.08 20.93-9.2 8.37-16.56 16.74-11.05 10.46-20.24 18.83-12.88 10.47-14.72 14.64-18.4 14.65-7.36 6.28-9.2 8.37-7.36 6.28-9.2 8.37-7.36 6.27-9.2 6.28-11.05 8.37-11.04 8.37-5.52 4.19-5.52 6.27-14.72 12.56-11.04 10.46-7.36 8.37-5.52 4.19-7.36 4.18-11.04 10.46-9.2 8.37-7.36 6.28-5.52 4.19-7.36 4.18-9.2 6.28-5.52 4.18-9.21 6.28-5.52 2.09h-9.2l-5.52-2.09-7.36-2.09h-9.2v-2.09l7.36-18.84 14.72-14.64 5.52-6.28 9.2-6.28 12.89-10.46 11.04-12.56 5.52-8.37 7.36-8.37 11.04-12.55 3.68-2.09 9.2-2.1 7.36-6.27 1.84-2.1-1.84-4.18-16.56 2.09-20.24 6.28-18.4 6.28h-23.93l-1.84 2.09v-8.37l5.52-25.11 11.04-20.93 9.21-18.83 3.68-12.55 7.36-8.37 7.36-10.47" fill="none" stroke="#008000" stroke-linecap="round" stroke-linejoin="round" stroke-miterlimit="10" stroke-width="33.6"/>
                <path d="m1570.2 1282.2 3.68-2.1 1.84-2.09 7.36-4.18 5.52-4.19 1.85-2.09 5.52-6.28 7.36-4.18 3.68-2.1 1.84-2.09 5.52-4.18 3.68-2.1 5.52-6.27 3.68-2.1 3.68-4.18 3.68-2.09 1.84-2.1 5.52-6.27 1.84-2.1 3.68-2.09 3.68-4.18 1.84-4.19 3.68-4.18h1.84l1.84-2.1 1.84-2.09 5.52-2.09 1.84-2.09h1.84l3.68-2.1 3.68-2.09 1.84-2.09 5.52-2.09 1.84-2.1h1.84l5.52-4.18 1.84-2.09 3.68-2.1 3.68-4.18h1.84l1.84-2.09h3.68l1.84-2.1h3.68l3.69-2.09 3.68-2.09 1.84-2.09 7.36-4.19 3.68-2.09h1.84l5.52-4.19 3.68-2.09 1.84-2.09 5.52-2.09 3.68-2.1 3.68-4.18h3.68l1.84-2.09 5.52-4.19h3.68l5.52-4.18 5.52-4.19 5.52-2.09 1.84-2.09 5.52-4.19 3.68-2.09h1.84l1.84-2.09h1.84l1.84-2.1h1.84l1.84-2.09h1.84l3.68-4.18 3.68-2.1 5.52-6.27h1.84l1.84-2.1 3.68-4.18 3.68-2.09 3.68-4.19 1.85-2.09 1.84-2.09 1.84-2.1 1.84-2.09h1.84l3.68-4.18 1.84-2.1 3.68-2.09 1.84-2.09 3.68-2.09 3.68-4.19 1.84-2.09 3.68-4.19 3.68-4.18 3.68-2.09 1.84-2.1h1.84l1.84-2.09 3.68-2.09 1.84-2.09 3.68-2.1 7.36-6.27 1.84-2.1 3.68-2.09 7.36-6.28 3.68-4.18 3.68-4.19 3.68-2.09 3.68-4.18 3.68-2.1 1.84-2.09 3.68-4.183 1.84-2.093 5.52-4.185 3.68-4.185 1.84-2.092 1.84-2.093 3.68-2.093 1.84-2.092 1.84-2.093 1.84-2.092h1.84l1.84-2.093h3.69l1.84-2.092h1.84l1.84-2.093h1.84l1.84-2.092h1.84l1.84-2.093h1.84l1.84-2.092 1.84-2.093 1.84-2.092" fill="none" stroke="#008000" stroke-linecap="round" stroke-linejoin="round" stroke-miterlimit="10" stroke-width="33.6"/>
                <path d="m1610.7 1102.2 3.68-4.18 1.84-2.1 5.52-6.27 3.68-2.1 11.04-4.18 1.84-2.09 5.52-4.19 1.84-2.09 5.52-4.19 3.68-4.18 3.68-2.09 1.84-2.1 3.68-4.18h1.84l1.84-2.09 3.68-4.19 3.68-4.18 1.84-2.1 3.68-4.18 3.68-4.19 5.52-6.27 1.84-2.1 1.84-2.09h1.84l3.68-4.18h1.84l1.84-2.1 5.52-6.27h1.84l1.84-2.1 1.84-2.09h1.84l3.69-4.18 1.84-2.1 1.84-2.09h1.84l1.84-2.091 1.84-2.092h1.84l1.84-2.093 1.84-2.092 3.68-2.093 1.84-2.092h1.84l1.84-2.093 3.68-2.092 3.68-4.186h1.84l1.84-2.092h1.84l1.84-2.093 3.68-2.092 1.84-2.093 1.84-2.092h1.84l1.84-2.093 1.84-2.092 1.84-2.093h1.84l1.84-2.092 1.84-2.093h1.84l1.84-2.092 3.68-2.093 3.68-4.185h1.84l1.84-2.092 1.84-2.093 1.84-2.092h1.84l3.68-4.185 1.84-2.093h1.84l1.84-2.092 3.68-4.185 1.84-2.093 1.84-2.092 3.68-4.185 1.84-2.093 1.84-2.092 1.84-2.093h1.84l1.84-2.092 1.84-2.093 3.68-2.092v-2.093l3.68-2.092 1.84-2.093 1.84-2.092h1.84l1.84-2.093 1.84-2.092 1.85-2.093 1.84-2.092h1.84l1.84-2.093h1.84l1.84-2.092 3.68-2.093 5.52-2.092 1.84-2.093 1.84-2.092 3.68-2.093 5.52-4.185h1.84l1.84-2.092 1.84-2.093 9.2-6.277h3.68l3.68-4.185h1.84l3.68-2.093 1.84-2.092 7.36-4.185 3.68-2.093 3.68-4.185h1.84l3.68-2.092 3.68-2.093 3.68-2.092 5.52-4.185 3.68-4.185 7.36-4.185 1.84-2.093 3.68-2.092 3.68-2.093 3.68-2.092 3.68-2.093h1.84l3.68-2.092 1.85-2.093h3.68l1.84-2.092h1.84l1.84-2.093 1.84-2.092h1.84l1.84-2.093 1.84-2.092h1.84" fill="none" stroke="#008000" stroke-linecap="round" stroke-linejoin="round" stroke-miterlimit="10" stroke-width="33.6"/>
                <path d="m2044 220.23 3.68-8.37v-4.185l-3.68-4.185h-7.36l-3.68-4.185h-3.68l-3.68-4.185h-14.72l-3.68 4.185h-3.68l-3.68 4.185h-3.68l-7.36 8.37h-3.68l-3.68 4.185h-3.68l-3.69 4.185-7.36 8.37h-3.68l-7.36 8.37-3.68 4.186h-3.68l-11.04 12.555h-3.68l-14.72 16.74h-3.68l-22.08 25.11v4.185h-3.68l-3.68 4.185v4.185l-29.44 33.48v4.185l-7.36 8.37-3.69 4.185-3.68 4.185v4.185l-7.36 8.37v4.185l-11.04 12.555v4.185l-3.68 4.185v4.185l-3.68 4.185v4.185l-7.36 8.37v4.185l-7.36 8.37v4.185l-7.36 8.37v4.185l-7.36 8.37v4.185l-7.36 8.37v4.185l-11.04 12.555v4.185l-14.72 16.74v4.185l-11.04 12.555v4.185l-7.36 8.37v4.185l-14.72 16.74v4.185l-3.69 4.185-3.68 4.185v4.185l-7.36 8.37v4.185l-7.36 8.37v4.185l-7.36 8.37v4.185l-3.68 4.185v4.185l-3.68 4.185v4.185l-3.68 4.185v4.185l-3.68 4.185v4.185l-3.68 4.185v4.185l-11.04 12.555v4.185l-3.68 4.185v4.185l-3.68 4.185v4.185l-3.68 4.185v4.185l-3.68 4.185v4.185l-7.36 8.37v4.185l-7.36 8.37v4.185l-3.68 4.185v4.185l-3.68 4.185v4.185l-3.68 4.185v8.37l-3.68 4.185-3.68 8.37v8.37l-3.68 4.185-7.36 16.74v4.185l-3.68 8.37v4.185l-3.68 4.185-3.68 8.37v8.371l-3.69 8.37-3.68 4.185v12.555l-7.36 16.74v12.555l-3.68 8.37v16.74l-3.68 4.185v12.555l-3.68 4.185v4.185l-3.68 4.185v8.37l-3.68 4.185v12.555l-3.68 4.185v16.74l-3.68 8.372v12.55l-3.68 4.19v8.37l-3.68 8.37v12.55l-3.68 8.37v4.19l-3.68 4.18v12.56l-3.68 4.18v16.74l-3.68 8.37v12.56l-3.68 8.37v12.55l-3.68 4.19v25.11l-3.68 4.18v25.11l-3.68 8.37v33.48l3.68 4.19v8.37l3.68 8.37v12.55l3.68 4.19v4.18l3.68 4.19v4.18l3.68 4.19 3.68 8.37v4.18l3.68 4.19 3.68 4.18v8.37l3.68 4.19 3.68 4.18 3.68 4.19 3.68 4.18 3.68 4.19 3.68 4.18 3.68 4.19 3.68 4.18 3.68 4.19 3.68 4.18 3.68 4.19 3.68 4.18 3.69 4.19 3.68 4.18h47.84l7.36-4.18h7.36l3.68-4.19h3.68l3.68-4.18h3.68l3.68-4.19 3.68-4.18h3.68l3.68-4.19h3.68l3.68-4.18h3.68l3.68-4.19h7.36l7.36-4.18 3.69-4.19h7.36l7.36-4.18 3.68-4.19h3.68l7.36-4.18 3.68-4.19 7.36-8.37h3.68l3.68-4.18 3.68-4.19 3.68-4.18 3.68-4.19 3.68-8.37 7.36-8.37 3.68-8.37 3.68-4.18 7.36-12.56 7.36-8.37 3.68-4.18 3.68-8.37 7.36-8.37 3.68-4.19 3.68-8.37 11.04-20.92 3.69-12.56 7.36-8.37 3.68-8.37 7.36-12.55 3.68-4.19 7.36-12.55 3.68-12.56 3.68-12.55 3.68-8.37v-8.37l7.36-16.74 7.36-20.93 3.68-12.55 7.36-12.56v-4.18l3.68-4.19v-4.18l7.36-16.74 3.68-8.372v-8.37l7.36-16.74v-8.37l3.68-4.185v-16.74l7.36-12.555v-8.37l3.68-4.185v-25.11" fill="none" stroke="#000" stroke-linecap="round" stroke-linejoin="round" stroke-miterlimit="10" stroke-width="12"/>
                <path d="m1753.3 1320.9v-8.37l3.68-4.19 3.68-4.18v-4.19h3.68v-4.18l3.68-4.19 3.68-4.18 3.68-4.19 3.68-4.18 3.68-4.19 3.68-4.18 3.68-4.19v-4.18l3.68-4.19 3.68-4.18v-4.19l3.68-4.18 3.68-4.19 3.68-4.18 3.68-4.19 3.68-4.18 3.68-4.19 3.68-4.18 3.68-4.19 3.68-4.18 3.68-4.19 3.68-4.18 3.68-4.19v-4.18l3.68-4.19 3.69-4.18 3.68-4.19v-4.18l3.68-4.19 3.68-4.18v-4.19l3.68-4.18v-4.19l3.68-4.18 3.68-4.19v-4.18l3.68-4.19v-8.37l3.68-4.18 3.68-4.19v-8.37l3.68-4.18v-4.19l3.68-4.18v-4.19l3.68-4.18v-4.19l3.68-4.18v-4.19l3.68-4.18v-4.19l3.68-4.18v-4.19l3.68-4.18v-4.19l3.68-4.18v-4.19l3.68-4.18v-4.19l3.68-4.18v-4.19l3.68-4.18v-4.19l3.68-4.18v-4.19l3.68-4.18v-8.37l3.68-4.187v-4.185l3.68-4.185v-4.185l3.68-4.185v-8.37l3.68-4.185v-4.185l3.68-4.185v-4.185l3.68-4.185v-8.37l3.68-4.185v-8.37l3.68-4.185v-12.555l3.68-4.185v-12.555l3.68-4.185v-12.555l3.68-4.185v-8.37l3.68-4.185v-12.555l3.69-4.185v-12.555l3.68-4.186v-8.37l3.68-4.185v-12.555l3.68-4.185v-8.37l3.68-4.185v-12.555l3.68-4.185v-16.74l3.68-4.185v-29.295l3.68-4.185v-16.74l3.68-4.185v-29.295l3.68-4.185v-46.035" fill="none" stroke="#000" stroke-linecap="round" stroke-linejoin="round" stroke-miterlimit="10" stroke-width="8.4"/>
                <path d="m1745.9 1007v29.3l-3.68 4.18v12.56l-3.68 4.18v8.37l-3.68 4.19v4.18l-3.68 4.19v8.37l-3.68 4.18-3.68 4.19v12.55l-3.68 4.19v4.18l-3.69 4.19v4.18l-3.68 4.19v8.37l-3.68 4.18v4.19l-3.68 4.18v8.37l-3.68 4.19v8.37l-3.68 4.18v4.19l-3.68 4.18v29.3l-3.68 4.18v33.48l-3.68 4.19v20.92l-3.68 4.19v16.74l-3.68 4.18v16.74l-3.68 8.37v37.67l-3.68 4.18v33.48l-3.68 4.19v16.74l-3.68 4.18v37.67l-3.68 4.18v29.3l-3.68 4.18v20.93l-3.68 4.18v12.56l-3.68 12.55v8.37l-3.68 12.56v20.92l-3.68 4.19v20.92l-3.68 8.37v37.67l-3.68 8.37v133.92l3.68 8.37v25.11l3.68 8.37v16.74l3.68 4.18v12.56l3.68 4.18v4.19l3.68 8.37v8.37l3.68 4.18v8.37l3.68 8.37 3.68 4.19v4.18l3.68 4.19v4.18l3.68 4.19v8.37" fill="none" stroke="#000" stroke-linecap="round" stroke-linejoin="round" stroke-miterlimit="10" stroke-width="12"/>
                <path d="m3486.7 1383.7 3.68 8.37 3.68 4.19v4.18l3.68 4.19v8.37l3.68 4.18v46.04l-3.68 4.18-3.68 4.19-3.68 4.18-3.68 4.19-3.68 4.18-3.68 4.19-3.68 4.18v4.19l-3.68 4.18-3.68 4.19-3.68 4.18-3.68 4.19h-3.68l-3.68 4.18h-3.68l-3.68 4.19-3.68 4.18-3.68 4.19-3.68 4.18-3.68 4.19-3.68 4.18h-7.36l-3.68 4.19h-3.68l-3.68 4.18-3.68 4.19-3.68 4.18-3.68 4.19v4.18h-3.69l-3.68 4.19v4.18l-3.68 4.19-3.68 4.18h-3.68l-3.68 4.19-3.68 4.18-3.68 4.19-3.68 4.18-3.68 4.19-3.68 4.18-3.68 4.19v4.18l-3.68 4.19h-3.68l-3.68 4.18h-3.68l-3.68 4.19h-3.68l-3.68 4.18h-14.72l-3.68 4.19h-18.4l-3.68-4.19h-7.36l-3.68-4.18h-3.68v-4.19l-3.68-4.18v-4.19l-3.69-4.18-3.68-4.19v-25.11l-3.68-4.18v-33.48l3.68-4.19v-8.37l3.68-4.18 3.69-4.19v-8.37l3.68-4.18v-4.19l3.68-4.18 3.68-4.19v-4.18l3.68-4.19 3.68-4.18 3.68-4.19v-4.18l3.68-4.19 3.68-4.18v-4.19l3.68-4.18 3.68-4.19 3.68-4.18v-4.19l3.68-4.18 3.68-4.19 3.68-4.18 3.68-4.19 3.68-4.18 3.68-4.19v-4.18l3.68-4.19v-4.18l3.68-4.19 3.68-4.18v-4.19l3.68-4.18v-4.19l3.68-4.18 3.68-4.19 3.68-4.18 3.68-4.19 3.68-4.18 3.68-4.19 3.68-4.18h3.68l3.68-4.19 3.68-4.18h7.36l3.68-4.19h22.09" fill="none" stroke="#000" stroke-linecap="round" stroke-linejoin="round" stroke-miterlimit="10" stroke-width="12"/>
                <path d="m3357.9 1630.6v92.07l-3.68 4.18-3.68 4.19" fill="none" stroke="#000" stroke-linecap="round" stroke-linejoin="round" stroke-miterlimit="10" stroke-width="12"/>
                <path d="m3737 1454.8-7.36-4.19-3.68-4.18h-29.44l-3.68 4.18h-3.68l-3.68 4.19h-3.68l-3.68 4.18h-3.68l-3.68 4.19h-3.68l-3.68 4.18-3.68 4.19h-7.37l-3.68 4.18h-7.36l-3.68 4.19h-3.68l-3.68 4.18h-3.68l-3.68 4.19h-3.68l-3.68 4.18h-3.68l-3.68 4.19-3.68 4.18-3.68 4.19-3.68 4.18-3.68 4.19v8.37l-3.68 4.18v4.19l-3.68 4.18v4.19l-3.68 4.18v8.37l-3.68 4.19v12.55l-3.68 4.19v37.66l3.68 4.19 3.68 4.18 3.68 4.19 3.68 4.18 3.68 4.19h7.36l3.68 4.18h18.4l3.68-4.18h14.72l3.68-4.19h11.05l3.68-4.18h7.36l3.68-4.19h14.72l3.68-4.18h14.72l3.68-4.19h3.68l3.68-4.18h3.68l3.68-4.19h3.68v-4.18h3.68l3.68-4.19 3.68-4.18 3.68-4.19h3.68l3.68-4.18h7.36l3.68-4.19h3.68l3.68-4.18h3.68l3.68-4.19h3.68l3.68-4.18 3.69-4.19h3.68l3.68-4.18 3.68-4.19h3.68l3.68-4.18h3.68l3.68-4.19h3.68l3.68-4.18 3.68-4.19 3.68-4.18 3.68-4.19 3.68-4.18v-4.19h3.68v-4.18l3.68-4.19 3.68-4.18 3.68-4.19v-4.18l3.68-4.19v-4.18l3.68-4.19v-16.74l-3.68-4.18h-3.68l-3.68-4.19-3.68-4.18h-7.36l-3.68-4.19h-7.36l-3.68-4.18h-3.68l-3.68-4.19-3.68-4.18h-3.68l-3.68-4.19h-3.68" fill="none" stroke="#000" stroke-linecap="round" stroke-linejoin="round" stroke-miterlimit="10" stroke-width="12"/>
                <path d="m3656 1626.4-3.69 8.37v41.85l-3.68 4.19v8.37l-3.68 4.18v4.19l-3.68 4.18v4.19l-3.68 4.18v4.19l-3.68 4.18-3.68 4.19v8.37l-3.68 4.18-3.68 4.19-3.68 4.18v4.19l-3.68 4.18v4.19l-3.68 4.18-3.68 4.19v4.18l-3.68 4.19v4.18l-3.68 4.19v4.18l-3.68 4.19" fill="none" stroke="#000" stroke-linecap="round" stroke-linejoin="round" stroke-miterlimit="10" stroke-width="12"/>
                <path d="m159.72 2220.7 7.361-4.18h7.36l3.681-4.19h11.041l3.68-4.18h7.36l3.681-4.19h11.041l3.68-4.18h3.68l3.68-4.19h3.681l3.68-4.18h3.68l3.681-4.19h11.04l3.681-4.18h7.36l3.681-4.19h7.36l3.68-4.18h7.361l3.68-4.19h7.361l3.68-4.18h3.68l3.681-4.19h3.68l3.68-4.18h18.402l7.36-4.19h7.361l7.36-4.18h3.681l3.68-4.19h3.68l3.68-4.18h7.361l3.68-4.19h3.681l3.68-4.18h7.36l3.681-4.19h7.36l3.681-4.18 3.68-4.19h3.68l3.68-4.18h3.681l11.041-4.19 7.36-4.18 3.68-4.19 7.361-4.18 3.68-4.19h11.041l3.68-4.18h3.681l3.68-4.19h11.041l3.68-4.18h11.041l3.68-4.19h3.681l3.68-4.18h7.36l3.681-4.19h3.68l3.68-4.18h11.041l3.68-4.19h3.681l3.68-4.18h3.68l3.681-4.19h3.68l7.36-4.18h3.681l3.68-4.19h3.68l3.681-4.18h7.36l3.68-4.19h7.361l3.68-4.18h3.681l3.68-4.19 3.68-4.18h11.041l7.361-8.37h3.68l7.36-4.19h3.681l3.68-4.18h11.041l3.68-4.19h11.041l3.68-4.18h7.361l3.68-4.19h7.361l3.68-4.18 7.361-4.19h3.68l3.68-4.18h7.361l3.68-4.19h3.68l7.361-8.37h7.36l3.681-4.18h3.68l3.68-4.19h7.361l3.68-4.18h7.361l3.68-4.19h3.68l3.681-4.18h7.36l3.68-4.19h14.722l7.36-4.18h7.361l7.36-4.19h7.361l7.36-4.18h14.722l3.68-4.19h7.36l7.361-4.18h11.041l7.36-4.19 11.041-4.18 7.361-4.19 7.36-4.18 7.361-4.19 7.361-4.18 7.36-4.19h3.68l7.361-4.18 3.68-4.19h3.681l3.68-4.18 7.36-4.19h3.681l7.36-4.18 7.361-4.19h3.68l7.36-4.18h3.68l7.36-4.19 3.68-4.18h7.36l7.36-4.19 7.36-4.18 7.36-4.19 3.68-4.18h7.36l3.69-4.19 7.36-4.18h14.72l3.68-4.19h18.4l7.36-4.18h22.08l7.36-4.19h11.04l7.36-4.18h11.04l11.04-4.19h7.37l7.36-4.18h14.72l11.04-4.19 11.04-4.18h7.36l11.04-4.19h11.04l7.36-4.18 11.04-4.19h7.36l7.36-4.18 7.36-4.19h11.04l7.37-4.18h7.36l3.68-4.19h7.36l7.36-4.18h11.04l7.36-4.19h14.72l3.68-4.18h25.76l7.36-4.19h22.08l7.37-4.18h7.36l11.04-4.19h18.4l3.68-4.18h11.04l3.68-4.19h18.4l7.36-4.18 11.04-4.19h11.04l7.36-4.18h7.36l7.36-4.19h3.69l7.36-4.18h7.36l3.68-4.19h11.04l3.68-4.18" fill="none" stroke="#000" stroke-linecap="round" stroke-linejoin="round" stroke-miterlimit="10" stroke-width="12"/>
                <path d="m1657.6 1701.7h29.44l7.36-4.18h44.17l3.68-4.19h18.4l3.68-4.18h22.08l3.68-4.19h14.72l3.68-4.18h14.72l3.68-4.19h14.72l3.68-4.18h14.73l3.68-4.19h18.4l3.68-4.18h22.08l3.68-4.19h29.44l3.68-4.18h22.08l3.68-4.19h36.81l3.68-4.18h99.37l3.68 4.18h36.8l3.68 4.19h44.16l7.36 4.18h40.49l7.36-4.18h195.05l3.68-4.19h25.76l7.36-4.18h36.81" fill="none" stroke="#000" stroke-linecap="round" stroke-linejoin="round" stroke-miterlimit="10" stroke-width="16.8"/>
                <path d="m2518.8 1643.1h25.76l3.68 4.19h18.4l7.36 4.18h3.68l7.36 4.19h117.77l11.04-4.19h29.44l7.36-4.18h92.01l7.36 4.18h22.08l7.36 4.19h44.17l3.68 4.18h33.12l3.68 4.19h29.44l3.68 4.18h11.04l3.69 4.19h14.72l3.68 4.18h7.36l7.36 4.19h11.04l3.68 4.18h11.04l7.36 4.19h7.36l7.36 4.18h3.68l11.04 4.19h11.04l3.68 4.18h14.72l7.37 4.19h3.68l7.36 4.18h18.4l7.36 4.19h11.04l7.36 4.18h22.08l11.04 4.19h11.04l7.36 4.18h25.77l11.04 4.19h14.72l7.36 4.18h18.4l3.68 4.19h7.36l7.36 4.18h14.72l7.36 4.19h7.36l7.36 4.18h14.73l3.68 4.19h11.04" fill="none" stroke="#000" stroke-linecap="round" stroke-linejoin="round" stroke-miterlimit="10" stroke-width="16.8"/>
                <path d="m3405.7 1756.1 11.04 8.37 11.04 4.18h7.36l3.68 4.19h7.36l3.68 4.18h22.08l3.68 4.19h33.12l3.68 4.18h22.09l3.68 4.19h7.36l3.68 4.18h7.36l7.36 4.19h7.36l7.36 4.18h3.68l7.36 4.19h3.68l7.36 4.18h11.04l3.68 4.19h18.4l3.68 4.18h7.36l3.68 4.19h22.09l3.68 4.18h11.04l3.68 4.19h7.36l3.68 4.18h11.04l3.68 4.19h14.72l3.68 4.18h18.4l3.68 4.19h11.04l3.68 4.18h7.36l3.68 4.19h11.05l3.68 4.18h3.68l3.68 4.19h7.36l3.68 4.18h11.04l3.68 4.19h7.36l3.68 4.18h7.36l7.36 4.19h7.36l7.36 4.18h3.68l11.04 8.37h7.36l7.36 4.19h7.36l3.68 4.18h14.73l3.68 4.19h7.36l3.68 4.18h7.36l3.68 4.19 7.36 4.18h7.36l3.68 4.19h11.04l7.36 4.18 7.36 4.19h3.68l7.36 4.18 11.04 4.19h3.68l7.36 4.18 11.04 4.19 3.69 4.18h7.36l7.36 4.19h7.36l3.68 4.18 7.36 4.19h7.36l7.36 4.18 14.72 8.37h11.04l7.36 4.19 7.36 4.18h11.04l7.36 4.19 14.72 4.18h3.68l7.37 4.19h7.36l7.36 4.18h3.68l7.36 4.19h3.68l7.36 4.18h7.36l3.68 4.19h7.36l3.68 4.18h3.68l7.36 4.19h7.36l3.68 4.18 3.68 4.19" fill="none" stroke="#000" stroke-linecap="round" stroke-linejoin="round" stroke-miterlimit="10" stroke-width="12"/>
                <path d="m1646.6 1697.5h7.36l3.68 4.18h36.8l3.68-4.18h3.68l3.68-4.19h3.68l3.68-4.18h3.68l3.69-4.19h14.72l3.68-4.18h14.72l3.68-4.19h25.76l3.68-4.18h3.68l3.68-4.19h7.36l3.68-4.18h3.68l3.68-4.19h7.36l3.68-4.18h11.04l3.68-4.19h3.68l3.68-4.18h51.53l3.68-4.19h25.76l3.68 4.19h55.21l3.68-4.19h73.6l3.68 4.19h22.08l3.68 4.18h128.81l3.68-4.18h7.36-7.36l-11.04-4.19h-51.52l-11.04-4.18h-25.76 250.26l11.04-4.19h14.72l7.36-4.18h14.72l3.68-4.19h128.81l11.04 4.19h73.61l11.04 4.18h33.12l11.04 4.19h22.08l7.36 4.18h55.21l7.36 4.19h29.44l7.36 4.18h11.04l11.04 4.19h7.36" fill="none" stroke="#000" stroke-linecap="round" stroke-linejoin="round" stroke-miterlimit="10" stroke-width="16.8"/>
                <path d="m2872.1 1634.8 7.36 4.19 3.69 4.18h7.36l7.36 4.19 11.04 4.18h3.68l3.68 4.19h36.8l7.36 4.18h14.72l3.68 4.19h29.44l3.69 4.18h36.8l3.68 4.19h22.08l3.68 4.18h11.04l3.68 4.19h14.72l3.68 4.18h18.4l3.68 4.19h29.45l3.68 4.18h29.44l3.68 4.19h14.72l3.68 4.18h18.4l3.68 4.19h18.4l3.68 4.18h18.41l3.68 4.19h22.08l7.36 4.18h11.04l3.68 4.19h14.72l3.68 4.18h22.08l3.68 4.19h11.04l3.68 4.18h14.73l7.36 4.19h7.36l3.68 4.18h7.36l3.68 4.19h11.04l7.36 4.18h3.68l3.68 4.19h14.72l3.68 4.18h11.04l7.36 4.19h7.36l3.68 4.18h18.4l11.05 4.19 11.04 4.18h7.36l7.36 4.19h7.36l11.04 4.18h11.04l11.04 4.19h7.36l11.04 4.18 14.72 4.19 7.36 4.18h14.73l3.68 4.19h7.36l3.68 4.18h7.36l3.68 4.19h11.04l7.36 4.18h7.36l11.04 4.19h7.36l11.04 4.18 7.36 4.19h7.36l7.36 4.18h3.68l3.68 4.19h3.68l7.36 4.18h7.37l3.68 4.19h11.04l3.68 4.18" fill="none" stroke="#000" stroke-linecap="round" stroke-linejoin="round" stroke-miterlimit="10" stroke-width="8.4"/>
                <path d="m152.47 2240.2c5.409-24.6 56.799-55.36 154.17-92.27 97.37-36.91 224.49-89.19 381.37-156.86 156.88-67.66 298.87-121.49 425.99-161.47 127.12-39.98 255.6-72.28 385.43-96.88 129.82-24.61 261-44.6 393.54-59.98 132.53-15.38 261-23.07 385.42-23.07s263.71 3.08 417.88 9.23 298.88 19.99 434.11 41.52c135.24 21.53 266.42 47.67 393.54 78.43 127.13 30.76 244.78 63.05 352.97 96.88 108.19 33.84 246.13 90.74 413.83 170.7" fill="none" stroke="#000" stroke-linecap="round" stroke-linejoin="round" stroke-miterlimit="10" stroke-width="8.4"/>
                <path d="m1860.5 583.93c0-6.151 10.82-26.143 32.46-59.976 21.63-33.832 41.24-63.051 58.82-87.656 17.59-24.606 32.46-40.753 44.63-48.442s22.32-5.383 30.43 6.92c8.12 12.303 9.47 39.984 4.06 83.043-5.41 43.06-15.55 109.96-30.43 200.69s-36.51 179.93-64.91 267.58c-28.4 87.657-58.16 159.17-89.26 214.53s-61.53 101.5-91.29 138.41c-29.75 36.9-58.15 59.97-85.19 69.2-27.05 9.23-52.75 7.69-77.09-4.61-24.34-12.31-42.6-36.14-54.77-71.51s-14.88-83.82-8.11-145.33c6.76-61.51 17.58-120.72 32.45-177.62 14.88-56.9 39.22-126.1 73.03-207.61s73.7-160.7 119.68-237.6c45.99-76.891 83.85-135.33 113.6-175.31 29.76-39.984 56.13-70.74 79.12-92.27s39.89-35.37 50.71-41.522c10.82-6.151 21.64-8.458 32.46-6.92s18.93 10.765 24.34 27.681 5.41 43.828 0 80.737c-5.41 36.908-16.9 81.505-34.48 133.79-17.59 52.287-49.37 146.1-95.35 281.42" fill="none" stroke="#000" stroke-linecap="round" stroke-linejoin="round" stroke-miterlimit="10" stroke-width="8.4"/>
                <path d="m1755 1008.4c-43.27 184.54-69.64 317.56-79.11 399.06-9.47 81.51-16.9 149.94-22.31 205.3-5.41 55.37-8.12 110.73-8.12 166.09s1.36 92.27 4.06 110.73c2.7 18.45 10.82 46.13 24.34 83.04" fill="none" stroke="#000" stroke-linecap="round" stroke-linejoin="round" stroke-miterlimit="10" stroke-width="8.4"/>
                <path d="m3406.3 1415.3c19.47-17.23 33.81-28.3 43-33.22 9.2-4.92 18.12-7.38 26.78-7.38 8.65 0 15.15 3.38 19.47 10.15 4.33 6.76 7.04 14.76 8.12 23.99 1.08 9.22 0.54 20.3-1.62 33.22-2.17 12.91-7.31 27.06-15.42 42.44-8.12 15.38-21.1 31.68-38.95 48.9-17.85 17.23-33.81 32.91-47.87 47.06-14.07 14.15-25.7 26.14-34.9 35.99-9.19 9.84-20.82 18.45-34.89 25.83-14.06 7.38-26.23 9.84-36.51 7.38s-18.39-8.3-24.34-17.53-8.93-19.07-8.93-29.52c0-10.46 2.44-24.3 7.3-41.53 4.87-17.22 10.55-34.44 17.04-51.67 6.5-17.22 15.69-35.06 27.59-53.51 11.9-18.46 22.45-37.53 31.65-57.21 9.19-19.69 17.58-32.91 25.15-39.68 7.58-6.76 14.34-11.99 20.29-15.68s12.17-4.92 18.66-3.69 11.09 5.84 13.79 13.84c2.71 7.99 2.71 22.45 0 43.36-2.7 20.92-4.05 49.83-4.05 86.74" fill="none" stroke="#000" stroke-linecap="round" stroke-linejoin="round" stroke-miterlimit="10" stroke-width="8.4"/>
                <path d="m3732.5 1459.6c-29.21 3.69-51.66 9.53-67.35 17.53-15.69 7.99-30.83 18.45-45.44 31.37-14.6 12.92-22.99 27.07-25.15 42.44-2.17 15.38-4.06 28.61-5.68 39.68-1.63 11.07 1.35 19.68 8.92 25.84 7.58 6.15 18.94 7.68 34.08 4.61 15.15-3.08 26.24-4.92 33.27-5.54 7.03-0.61 19.75-4.3 38.14-11.07s35.16-15.38 50.31-25.84c15.14-10.45 28.4-20.29 39.76-29.52s20.82-18.46 28.4-27.68c7.57-9.23 12.98-18.76 16.22-28.61 3.25-9.84 2.98-18.76-0.81-26.75-3.78-8-18.66-16.92-44.63-26.76" fill="none" stroke="#000" stroke-linecap="round" stroke-linejoin="round" stroke-miterlimit="10" stroke-width="8.4"/>
                <path d="m3364.1 1598c0 3.69-0.54 17.23-1.62 40.6-1.08 23.38-1.62 55.98-1.62 97.81" fill="none" stroke="#000" stroke-linecap="round" stroke-linejoin="round" stroke-miterlimit="10" stroke-width="8.4"/>
                <path d="m3669.2 1620.1c-6.49 29.52-15.96 58.13-28.4 85.81s-24.62 59.36-36.52 95.04" fill="none" stroke="#000" stroke-linecap="round" stroke-linejoin="round" stroke-miterlimit="10" stroke-width="8.4"/>
                <path d="m501.05 2081.7 6.989-7.95 3.495-3.98 3.495-3.97h3.495l3.495-3.97h31.453l3.495-3.98h17.474l3.495-3.97h3.495l3.495-3.98h10.485l3.494-3.97h10.485l3.495-3.97h20.969l3.495-3.98h10.484l3.495-3.97h3.495l3.495-3.98h6.989l3.495-3.97h10.485l3.495-3.97 3.495-3.98h6.989l3.495-3.97h6.99l3.495-3.98h10.484l3.495-3.97h6.99l3.495-3.98h6.989l3.495-3.97h13.98l3.494-3.97h3.495l3.495-3.98h6.99l3.495-3.97h3.494l3.495-3.98h3.495l6.99-7.94h6.99l3.494-3.98h10.485l3.495-3.97h6.99l3.494-3.98 3.495-3.97h17.474l3.495-3.98 3.495-3.97h3.495l3.495-3.97h6.99l3.494-3.98h3.495l3.495-3.97 3.495-3.98 3.495-3.97h13.979l3.495-3.97h10.485l3.494-3.98h6.99l3.495-3.97h3.495l3.495-3.98h6.989l3.495-3.97h6.99l3.495-3.97h10.484l3.495-3.98h6.99l3.495-3.97h6.989l3.495-3.98h6.99l3.49-3.97h3.5l3.49-3.98h6.99l3.5-3.97h10.48l3.5-3.97h10.48l3.5-3.98h10.48l3.5-3.97h3.49l3.5-3.98h3.49l3.5-3.97h10.48l3.5-3.97h3.49l13.98-7.95 10.48-3.98h6.99l6.99-3.97h38.45l3.49-3.98h13.98l6.99-3.97h6.99l3.5-3.97h10.48l10.49-7.95h3.49l6.99-3.98 6.99-3.97 17.47-7.95 13.98-3.97h6.99l3.5-3.98h6.99l3.49-3.97h20.97l17.48-3.97h27.95l3.5-3.98h17.47l6.99-3.97 10.49-3.98 13.98-3.97 6.99-3.98h13.98l3.49-3.97h10.49l6.99-3.97h3.49l3.49-3.98h20.97l3.5-3.97h10.48l6.99-3.98h13.98l3.5-3.97h10.48l3.5-3.97h10.48l6.99-3.98 13.98-3.97 3.5-3.98h66.4l3.49-3.97" fill="none" stroke="#000" stroke-linecap="round" stroke-linejoin="round" stroke-miterlimit="10" stroke-width="12"/>
                <path d="m1836.1 1688.3-6.99 3.97h-6.99l-3.5 3.98h-34.94l-3.5 3.97h-13.98l-3.49 3.97h-10.49l-3.49 3.98h-6.99l-3.5 3.97h-20.97l-3.49 3.98h-3.5l-3.49 3.97h-10.49l-3.49 3.97h-20.97l-3.49 3.98h-45.44l-3.49 3.97h-13.98l-3.5 3.98h-20.97l-3.49 3.97h-13.98l-3.49 3.98h-13.98l-3.5 3.97h-13.98l-3.49 3.97h-3.5l-6.99 3.98h-17.47l-6.99 3.97h-17.48l-3.49 3.98h-6.99l-10.48 3.97h-24.47l-3.49 3.97h-31.46l-3.49 3.98h-20.97l-6.99 3.97h-45.43l-3.5 3.98h-6.99l-3.49 3.97-10.49 3.98-6.99 3.97-10.48 3.97h-13.98l-6.99 3.98h-3.5l-3.49 3.97h-10.49l-6.98 3.98h-10.49l-3.49 3.97-6.99 3.97h-13.98l-3.5 3.98h-6.99l-3.49 3.97h-6.99l-3.5 3.98h-3.49l-3.5 3.97h-3.49l-3.5 3.97h-52.42l-3.49 3.98h-13.98l-3.5 3.97h-3.49l-6.99 3.98h-3.5l-3.49 3.97h-6.99l-6.99 3.98-3.5 3.97h-3.49l-3.5 3.97-10.48 7.95-6.99 3.98-10.49 7.94h-6.99l-3.49 3.98-13.979 3.97-6.99 3.98h-6.99l-6.99 3.97-6.989 3.98-6.99 3.97-10.484 3.97-10.485 3.98-6.99 3.97h-6.989l-6.99 3.98-13.98 3.97-10.484 3.97-10.485 3.98-17.474 7.95h-6.99l-3.494 3.97h-10.485l-3.495 3.97h-6.989l-3.495 3.98h-10.485l-3.495 3.97h-6.989l-6.99 3.98h-10.485l-17.474 7.95-10.484 3.97h-3.495l-3.495 3.97-3.495 3.98-10.485 7.95-3.494 3.97-3.495 3.97-3.495 3.98-3.495 3.97-6.99 3.98h-6.989l3.495-3.98 6.989-7.95 6.99-7.94h3.495l10.484-3.98 13.98-3.97 3.495-3.98h20.969l6.989-3.97h17.475l13.979-7.95 3.495-3.97h3.495l3.495-3.98h-6.99l-20.969 3.98-13.98 3.97-3.495 3.98-27.958 7.94-10.485 3.98-10.484 3.97-17.475 7.95-10.484 7.95-10.485 3.97-13.979 7.95-20.969 3.98-10.485 3.97-6.989 3.97h-6.99l-17.474 7.95-6.99 3.98h-3.495l-3.495 3.97-6.989 3.97-3.495 3.98-6.99 3.97-3.495 3.98h-3.495l-3.495 3.97-3.494 3.97h-3.495l-6.99 3.98-13.979 7.95-10.485 7.95h-3.495l-6.989 3.97h-6.99l-3.495 3.97h-10.485l-6.989 3.98-3.495 3.97h-13.979l-6.99 3.98h-13.98l-6.989 3.97-20.969 7.95-10.485 3.97h-13.979l-6.99 3.98h-13.979l-6.99 3.97h-6.99l-10.484 3.98-3.495 3.97-6.99 3.97h-6.99l-3.494 3.98h-13.98l-6.99 3.97h-10.484l-3.495 3.98h-10.484" fill="none" stroke="#000" stroke-linecap="round" stroke-linejoin="round" stroke-miterlimit="10" stroke-width="12"/>
            </g>
        </g>
    </g>
</svg>
